<svg xmlns="http://www.w3.org/2000/svg" width="150" height="50" viewBox="0 0 150 50" fill="none"><mask id="mask0_433_25449" style="mask-type:luminance" maskUnits="userSpaceOnUse" x="0" y="6" width="150" height="38"><path d="M150 6H0V43.0381H150V6Z" fill="white"></path></mask><g mask="url(#mask0_433_25449)"><path fill-rule="evenodd" clip-rule="evenodd" d="M10.3852 7.72822C7.49261 8.66521 5.03352 9.5785 4.92054 9.75774C4.63973 10.2027 4.90386 10.8016 5.38103 10.8027C5.5958 10.8031 8.15006 10.0541 11.0569 9.1382L16.3419 7.47263L21.8954 9.22705C24.9499 10.1919 27.5818 10.9303 27.7442 10.868C28.17 10.7046 28.1072 9.75554 27.6553 9.5219C26.8454 9.10354 16.6304 5.97666 16.1499 6.00013C15.8718 6.01373 13.2775 6.79145 10.3852 7.72822ZM0.534171 10.9764C0.1689 11.5677 -0.0842703 14.7038 0.0260801 17.2736C0.290438 23.4278 1.86825 28.4896 4.99996 33.2296C7.21792 36.5867 11.2943 40.3179 14.8301 42.2277L16.3303 43.0381L17.4132 42.4638C20.7822 40.6764 24.6311 37.3475 26.9965 34.175C28.5842 32.0459 30.6887 27.8038 31.41 25.2787C32.3951 21.8311 32.7062 19.2468 32.6061 15.3459C32.5487 13.1007 32.4149 11.6069 32.2437 11.2954C31.9473 10.7555 31.287 10.6434 30.9522 11.076C30.8355 11.227 29.4273 14.1886 27.8227 17.6575L24.9053 23.9648H16.4847H8.06409L4.83366 17.4382C2.22256 12.1622 1.51284 10.8985 1.13046 10.8441C0.870489 10.8071 0.602181 10.8665 0.534171 10.9764ZM1.57164 17.3833C1.81077 24.3884 3.9875 30.1309 8.26616 35.0437C9.91787 36.9401 14.0882 40.4022 14.3751 40.1152C14.4146 40.0758 11.5238 34.18 7.95109 27.0132L1.45559 13.9829L1.57164 17.3833ZM28.6989 19.4126C27.4502 22.0974 24.6177 27.7944 22.4044 32.0726C20.191 36.351 18.4061 39.9257 18.4381 40.0163C18.5364 40.2962 21.7021 37.795 23.3466 36.138C27.1275 32.3286 29.8123 27.0268 30.7602 21.4987C31.172 19.0962 31.4445 14.5313 31.176 14.5313C31.0624 14.5313 29.9476 16.7278 28.6989 19.4126ZM43.0357 17.8203C41.9219 18.2696 41.8604 18.6158 41.8604 24.4356V29.8547L42.4284 30.5295L42.9964 31.2045H49.0099H55.0235V30.4404V29.6761L49.2646 29.6177L43.5058 29.5591V24.4036V19.2481L49.2646 19.1895L55.0235 19.1312V18.3668V17.6027L49.2646 17.6165C46.0974 17.6242 43.2944 17.7159 43.0357 17.8203ZM63.5794 24.5133V31.4239H69.6124H75.6454L75.646 30.6012V29.7785L70.3805 29.8411L65.115 29.9033V27.5924V25.2811H69.3932H73.6714V24.5133V23.7454H69.3932H65.115V21.4419V19.1384H70.3805H75.6454V18.3705V17.6027H69.6124H63.5794V24.5133ZM84.3007 17.8793C84.2424 18.0314 84.2212 21.1166 84.2534 24.7351L84.3111 31.3142L85.0172 31.3824L85.7228 31.4506L85.7853 28.8595L85.8472 26.2684L88.5893 26.2116L91.3313 26.1545L93.4224 28.7345C95.4395 31.2232 95.5457 31.3166 96.4389 31.3815C96.9477 31.4189 97.3649 31.3673 97.3649 31.2673C97.3649 31.1672 96.4826 30.0017 95.4049 28.6768L93.4443 26.2684L94.5821 26.2116C96.3247 26.1244 96.6848 25.9854 97.1511 25.2203C97.5148 24.6241 97.5822 24.1111 97.5828 21.9459C97.5847 17.5171 97.7316 17.6027 90.1388 17.6027C85.7294 17.6027 84.3827 17.6665 84.3007 17.8793ZM105.482 18.3673V19.1384H108.443H111.405V25.295V31.4518L112.118 31.3829L112.831 31.3142L112.889 25.2327L112.948 19.1511L115.851 19.0899L118.755 19.0287V18.3705V17.7124L112.118 17.6542L105.482 17.5963V18.3673ZM126.814 24.4584L126.872 31.3142L127.585 31.3829L128.298 31.4518V24.5271V17.6027H127.527H126.756L126.814 24.4584ZM137.564 24.4584L137.622 31.3142H138.28H138.938L138.999 28.2977L139.06 25.2811L141.192 25.2827L143.325 25.2842L145.814 28.3541C148.244 31.3528 148.322 31.4239 149.159 31.4239C149.631 31.4239 150.017 31.3399 150.017 31.2372C150.017 31.1345 148.832 29.5978 147.384 27.8221C145.936 26.0466 144.752 24.5342 144.752 24.4613C144.752 24.3884 145.936 22.8655 147.384 21.0771C148.832 19.2889 150.017 17.7756 150.017 17.7141C150.017 17.6529 149.597 17.6071 149.085 17.6124C148.154 17.622 148.148 17.627 145.732 20.6289L143.313 23.6358L141.18 23.6985L139.048 23.7612V20.682V17.6027H138.277H137.506L137.564 24.4584ZM85.9644 19.5627C85.6377 20.173 85.6742 23.795 86.0118 24.2564C86.2589 24.5943 86.7689 24.6258 91.1121 24.5725L95.9386 24.5133L96.0011 22.1319C96.0424 20.5639 95.9768 19.6458 95.8099 19.4444C95.6071 19.2003 94.6107 19.1384 90.8735 19.1384C86.469 19.1384 86.1781 19.1636 85.9644 19.5627ZM8.95282 25.5891C8.95282 25.7164 16.137 40.217 16.262 40.3418C16.3193 40.3993 17.3269 38.589 18.5011 36.319C19.6752 34.0491 21.4195 30.6861 22.3776 28.8461L24.1193 25.5006H16.536C12.3654 25.5006 8.95282 25.5404 8.95282 25.5891Z" fill="white"></path></g></svg>