<svg xmlns="http://www.w3.org/2000/svg" width="150" height="50" viewBox="0 0 150 50" fill="none"><mask id="mask0_433_25491" style="mask-type:luminance" maskUnits="userSpaceOnUse" x="0" y="7" width="150" height="36"><path d="M150 7H0V42.3782H150V7Z" fill="white"></path></mask><g mask="url(#mask0_433_25491)"><path fill-rule="evenodd" clip-rule="evenodd" d="M14.5938 7.20844C10.1893 8.04398 6.29226 10.5073 3.54282 14.1934C-1.18284 20.5293 -1.18075 29.5069 3.54796 35.8872C4.63901 37.3595 6.95337 39.5236 8.40312 40.4272C9.5706 41.1549 11.6638 42.1193 12.5438 42.3352C12.9465 42.434 12.9945 42.3845 13.3074 41.5481C13.8714 40.0409 14.5713 37.5525 14.9926 35.5566C15.3571 33.8305 15.9245 30.0675 15.834 29.977C15.8136 29.9564 15.0043 29.8617 14.0356 29.7664C8.72396 29.2437 4.83257 27.8658 3.64891 26.0885C3.49258 25.854 3.36852 25.3656 3.36804 24.9828C3.36708 24.4002 3.46787 24.1875 4.03812 23.5688C4.83786 22.7013 6.67794 21.7667 8.6187 21.2424C9.82933 20.9153 9.95129 20.8449 10.097 20.3883C10.3523 19.5875 12.0327 13.8371 12.0429 13.7294C12.0524 13.6275 12.5921 15.4046 13.4751 18.4461L13.9878 20.2116H17.6696H21.3515L21.6396 19.2486C21.7982 18.7189 22.2115 17.2929 22.558 16.0797C23.1242 14.0981 23.429 13.4131 23.429 14.1223C23.429 14.3477 23.6426 15.1028 24.9734 19.5851L25.3594 20.8847L26.6813 21.2418C28.6242 21.7667 30.464 22.701 31.2641 23.5688C31.8344 24.1875 31.9351 24.4002 31.9342 24.9828C31.9324 26.1499 31.1508 26.9821 29.1841 27.9104C27.2199 28.8375 24.2812 29.4937 20.5331 29.8423L19.4832 29.94L19.5432 30.5326C19.8767 33.8269 20.7728 37.9639 21.7685 40.8071C22.4413 42.7279 22.2202 42.6603 24.5491 41.6563C33.5155 37.7906 37.7127 27.0807 33.8744 17.8604C31.7117 12.6656 27.3387 8.92559 21.6685 7.42125C20.0613 6.99482 16.3139 6.88215 14.5938 7.20844ZM111.984 15.2771C111.49 15.5832 111.06 16.3676 111.06 16.962C111.06 17.563 111.716 18.4077 112.38 18.6602C113.659 19.1468 115.233 18.236 115.233 17.0097C115.233 16.2359 114.856 15.5393 114.275 15.2389C113.654 14.9176 112.533 14.9362 111.984 15.2771ZM44.7349 16.0473C44.6686 16.1162 44.6145 19.952 44.6145 24.5718V32.971H48.5933C51.6481 32.971 52.791 32.9139 53.5153 32.7253C56.2605 32.0103 58.2372 30.0288 58.9906 27.236C59.3258 25.9935 59.3224 23.0841 58.9842 21.8295C58.232 19.0391 56.3081 17.1218 53.4762 16.3402C52.475 16.0638 44.9614 15.8122 44.7349 16.0473ZM61.7362 16.0634C61.6765 16.1234 61.6272 19.952 61.6272 24.5718V32.971H67.5655H73.5038V31.3661V29.7611H69.6522H65.8V27.9956V26.2302H69.3309H72.8618V24.545V22.8598H69.3309H65.8V21.0943V19.3288H69.6574H73.5154L73.4696 17.6837L73.4237 16.0386L67.6345 15.9966C64.4504 15.9733 61.7959 16.0035 61.7362 16.0634ZM75.5905 16.0839C75.5905 16.1579 76.7099 18.0771 78.078 20.3489C79.4462 22.6208 80.5655 24.5095 80.5655 24.5459C80.5655 24.6072 77.9887 28.8185 76.6867 30.8846C76.381 31.3701 75.9669 32.0382 75.7674 32.3692L75.4038 32.971L77.784 32.9657L80.1647 32.9606L81.6848 30.3175C82.5212 28.8639 83.2432 27.6753 83.2896 27.6759C83.3366 27.6767 84.0604 28.8655 84.899 30.3177L86.4238 32.9582L88.8069 32.9646L91.1905 32.971L90.8762 32.4494C90.7034 32.1626 89.5405 30.2837 88.2924 28.2741C87.0438 26.2645 86.0224 24.5804 86.0224 24.5318C86.0224 24.483 87.107 22.6455 88.4328 20.4481C89.758 18.2509 90.8861 16.3397 90.9388 16.2012C91.0247 15.9785 90.7718 15.9545 88.746 15.994L86.4563 16.0386L84.9153 18.7215C84.0679 20.1969 83.3383 21.404 83.2943 21.4037C83.2502 21.4034 82.5258 20.1961 81.6854 18.7209L80.1572 16.0386L77.8739 15.9942C76.6176 15.9696 75.5905 16.0101 75.5905 16.0839ZM92.4711 16.159C92.4995 16.2694 93.7784 20.0971 95.313 24.6653L98.1038 32.971H100.891C102.423 32.971 103.677 32.9434 103.677 32.9095C103.677 32.8757 104.941 29.1085 106.486 24.5381C108.031 19.9676 109.295 16.1655 109.295 16.0889C109.295 16.0123 108.267 15.9696 107.01 15.9942L104.725 16.0386L103.185 21.0943C102.339 23.8749 101.484 26.6812 101.287 27.3305C101.091 27.9797 100.899 28.4813 100.863 28.4449C100.827 28.4084 99.9678 25.6546 98.954 22.3254C97.9408 18.9963 97.068 16.2017 97.0146 16.1153C96.8609 15.8662 92.4062 15.9091 92.4711 16.159ZM48.7874 24.4403V29.4401H50.5214C52.0646 29.4401 52.3469 29.3945 53.0883 29.0251C54.5929 28.2752 55.0991 27.1476 55.0991 24.545C55.0991 20.9322 54.0244 19.7607 50.5128 19.546L48.7874 19.4405V24.4403ZM121.641 20.3507C118.606 21.1692 116.818 24.2865 117.325 27.8753C117.805 31.2765 120.168 33.2981 123.653 33.2896C125.753 33.2845 127.561 32.5769 128.613 31.3484C129.081 30.8013 129.781 29.3244 129.637 29.1875C129.615 29.1668 128.785 29.1262 127.793 29.0973C126.077 29.0473 125.976 29.0625 125.737 29.4039C125.133 30.2662 123.433 30.5633 122.44 29.9802C121.851 29.6348 121.332 28.7617 121.332 28.1186V27.6746H125.505H129.678L129.676 26.511C129.669 22.5563 127.261 20.1026 123.425 20.1421C122.848 20.1482 122.045 20.2421 121.641 20.3507ZM111.06 26.6314V32.971H113.146H115.233V26.6314V20.2918H113.146H111.06V26.6314ZM130.679 20.4924C130.72 20.6029 131.467 23.455 132.342 26.8309L133.931 32.9686L136.126 32.9699L138.322 32.971L138.564 32.1284C138.697 31.665 139.141 30.022 139.551 28.4775C139.961 26.9328 140.322 25.6436 140.353 25.6124C140.384 25.5813 140.492 25.87 140.592 26.2541C140.693 26.6381 141.131 28.276 141.566 29.8937C142.001 31.5113 142.357 32.8656 142.357 32.903C142.357 32.9404 143.351 32.971 144.567 32.971H146.777L148.379 26.8482C149.26 23.4807 150.004 20.6257 150.033 20.5038C150.077 20.3222 149.714 20.2902 148.027 20.3271L145.968 20.372L145.176 24.2641C144.74 26.4048 144.334 28.1561 144.275 28.1561C144.215 28.1561 144.088 27.7769 143.991 27.3135C143.768 26.2432 142.534 20.946 142.42 20.5726C142.346 20.3249 142.101 20.2918 140.34 20.2918C139.242 20.2918 138.344 20.3201 138.344 20.3547C138.344 20.5308 136.565 28.2242 136.512 28.2771C136.443 28.3462 136.253 27.5156 135.358 23.2208L134.747 20.2918H132.677C131.088 20.2918 130.623 20.3385 130.679 20.4924ZM122.88 23.1852C122.321 23.3526 121.855 23.7576 121.556 24.336C121.084 25.2497 121.122 25.2672 123.579 25.2672C125.753 25.2672 125.826 25.2563 125.826 24.9308C125.826 24.3596 125.302 23.6703 124.615 23.3379C123.911 22.997 123.599 22.9697 122.88 23.1852ZM10.3907 23.5924C8.8827 24.4106 9.43837 26.6314 11.151 26.6314C12.9359 26.6314 13.4297 24.2556 11.7875 23.5693C11.1149 23.2882 10.9461 23.2911 10.3907 23.5924ZM22.749 23.5924C21.2409 24.4106 21.7966 26.6314 23.5093 26.6314C25.1919 26.6314 25.7892 24.5369 24.3558 23.6628C23.7357 23.2848 23.3473 23.2677 22.749 23.5924Z" fill="white"></path></g></svg>