<svg xmlns="http://www.w3.org/2000/svg" width="150" height="50" viewBox="0 0 150 50" fill="none"><mask id="mask0_433_25524" style="mask-type:luminance" maskUnits="userSpaceOnUse" x="0" y="3" width="150" height="45"><path d="M149.125 3H0V47.7481H149.125V3Z" fill="white"></path></mask><g mask="url(#mask0_433_25524)"><path fill-rule="evenodd" clip-rule="evenodd" d="M43.7527 3H0.994252C0.730554 3 0.477646 3.10468 0.291262 3.29126C0.104678 3.47765 0 3.73055 0 3.99445V46.7528C0 47.0165 0.104678 47.2694 0.291262 47.4558C0.477646 47.6424 0.730554 47.7471 0.994252 47.7471H43.7527C44.0166 47.7471 44.2695 47.6424 44.4559 47.4558C44.6425 47.2694 44.7472 47.0165 44.7472 46.7528V3.99445C44.7472 3.73055 44.6425 3.47765 44.4559 3.29126C44.2695 3.10468 44.0166 3 43.7527 3ZM29.8314 31.8371C29.8314 32.1007 29.7267 32.3537 29.5401 32.5402C29.3538 32.7266 29.1008 32.8315 28.8371 32.8315H15.91C15.6464 32.8315 15.3934 32.7266 15.2068 32.5402C15.0205 32.3537 14.9158 32.1007 14.9158 31.8371V18.91C14.9158 18.6463 15.0205 18.3934 15.2068 18.207C15.3934 18.0204 15.6464 17.9157 15.91 17.9157H28.8371C29.1008 17.9157 29.3538 18.0204 29.5401 18.207C29.7267 18.3934 29.8314 18.6463 29.8314 18.91V31.8371Z" fill="white"></path><path d="M133.271 17.918H120.344C119.795 17.918 119.35 18.363 119.35 18.9122V31.8393C119.35 32.3884 119.795 32.8337 120.344 32.8337H133.271C133.82 32.8337 134.265 32.3884 134.265 31.8393V18.9122C134.265 18.363 133.82 17.918 133.271 17.918Z" fill="white"></path><path d="M105.422 3H118.349C118.899 3 119.344 3.44508 119.344 3.99445V16.9213C119.344 17.4705 118.899 17.9157 118.349 17.9157H105.422C104.874 17.9157 104.428 17.4705 104.428 16.9213V3.99445C104.428 3.44508 104.874 3 105.422 3Z" fill="white"></path><path d="M148.182 3H135.254C134.705 3 134.26 3.44508 134.26 3.99445V16.9213C134.26 17.4705 134.705 17.9157 135.254 17.9157H148.182C148.731 17.9157 149.176 17.4705 149.176 16.9213V3.99445C149.176 3.44508 148.731 3 148.182 3Z" fill="white"></path><path d="M105.422 32.832H118.349C118.899 32.832 119.344 33.2771 119.344 33.8262V46.7533C119.344 47.3025 118.899 47.7478 118.349 47.7478H105.422C104.874 47.7478 104.428 47.3025 104.428 46.7533V33.8262C104.428 33.2771 104.874 32.832 105.422 32.832Z" fill="white"></path><path d="M148.182 32.832H135.254C134.705 32.832 134.26 33.2771 134.26 33.8262V46.7533C134.26 47.3025 134.705 47.7478 135.254 47.7478H148.182C148.731 47.7478 149.176 47.3025 149.176 46.7533V33.8262C149.176 33.2771 148.731 32.832 148.182 32.832Z" fill="white"></path><path d="M83.0313 3H95.9577C96.5071 3 96.9524 3.44508 96.9524 3.99445V16.9213C96.9524 17.4705 96.5071 17.9157 95.9577 17.9157H83.0313C82.4819 17.9157 82.0366 17.4705 82.0366 16.9213V3.99445C82.0366 3.44508 82.4819 3 83.0313 3Z" fill="white"></path><path d="M95.9577 32.832H83.0313C82.4819 32.832 82.0366 33.2771 82.0366 33.8262V46.7533C82.0366 47.3025 82.4819 47.7478 83.0313 47.7478H95.9577C96.5071 47.7478 96.9524 47.3025 96.9524 46.7533V33.8262C96.9524 33.2771 96.5071 32.832 95.9577 32.832Z" fill="white"></path><path d="M81.7446 18.1958C81.9309 18.3822 82.0358 18.6351 82.0358 18.8988V31.8259C82.0358 32.0896 81.9309 32.3425 81.7446 32.5291C81.5583 32.7155 81.3052 32.8203 81.0418 32.8203H67.1204V46.7304C67.1204 46.9942 67.0155 47.247 66.8291 47.4334C66.6425 47.6201 66.3896 47.7247 66.1259 47.7247H53.199C52.9352 47.7247 52.6822 47.6201 52.4958 47.4334C52.3093 47.247 52.2046 46.9942 52.2046 46.7304V3.99445C52.2046 3.73055 52.3093 3.47765 52.4958 3.29126C52.6822 3.10468 52.9352 3 53.199 3H66.1259C66.3896 3 66.6425 3.10468 66.8291 3.29126C67.0155 3.47765 67.1204 3.73055 67.1204 3.99445V17.9046H81.0418C81.3052 17.9046 81.5583 18.0093 81.7446 18.1958Z" fill="white"></path></g></svg>