<svg xmlns="http://www.w3.org/2000/svg" width="150" height="50" viewBox="0 0 150 50" fill="none"><g clip-path="url(#clip0_433_25658)"><mask id="mask0_433_25658" style="mask-type:luminance" maskUnits="userSpaceOnUse" x="1" y="0" width="149" height="51"><path d="M150 0H1.38281V50.3362H150V0Z" fill="white"></path></mask><g mask="url(#mask0_433_25658)"><path fill-rule="evenodd" clip-rule="evenodd" d="M20.4826 0.0378967C15.7169 0.482074 11.3595 2.52368 8.01816 5.87783C4.81136 9.09707 2.96031 12.8552 2.25239 17.584C2.15787 18.2154 2.14538 19.1228 2.12619 26.7524L2.10498 35.2201L4.59034 37.706C5.9573 39.0733 7.09575 40.192 7.12024 40.192C7.14474 40.192 7.17417 35.2766 7.18569 29.2688C7.20872 17.2058 7.17929 18.1191 7.59988 16.4261C8.09806 14.4209 9.12596 12.3493 10.4573 10.6675C10.6696 10.3994 11.2022 9.82249 11.641 9.38547C14.0422 6.99421 17.1238 5.50617 20.4826 5.11605C21.6433 4.98124 23.6521 5.02463 24.6752 5.20654C26.2529 5.4871 27.5011 5.89026 28.8615 6.55894C30.3781 7.3042 31.5958 8.1705 32.8174 9.37326C35.2689 11.7869 36.7316 14.7464 37.2215 18.2847C37.3195 18.9923 37.3195 21.2335 37.2215 21.9411C36.8256 24.8002 35.7819 27.3038 34.0913 29.4492C33.5943 30.08 32.4966 31.2004 31.8171 31.7706C30.1262 33.1895 27.7363 34.3569 25.5059 34.8538C24.66 35.0422 23.4133 35.1951 22.7224 35.1951H22.2193V37.7334V40.2718L23.1007 40.2317C25.227 40.1352 27.3972 39.6903 29.3796 38.9446C31.109 38.2941 33.2712 37.0601 34.7491 35.88C39.3022 32.2447 42.0292 26.9334 42.3248 21.1249C42.6149 15.4251 40.4859 9.89527 36.4462 5.85553C33.2895 2.69881 29.2373 0.718391 24.7134 0.121443C23.8684 0.00992613 21.3222 -0.0403478 20.4826 0.0378967ZM21.4271 10.0675C16.6109 10.5263 12.878 14.0982 12.256 18.8431C12.1772 19.4437 12.1645 21.3217 12.1645 32.4106V45.2809L14.6928 47.8086L17.221 50.3362L17.237 34.737L17.2529 19.1379L17.454 18.559C17.7484 17.7119 18.0647 17.2164 18.7413 16.5419C19.2561 16.0289 19.4069 15.9181 19.9664 15.6429C20.8755 15.1956 21.2215 15.1163 22.2498 15.1195C23.1816 15.1224 23.583 15.2003 24.2698 15.5117C25.6565 16.1405 26.7101 17.3825 27.1062 18.8554C27.2694 19.4625 27.2845 20.6534 27.1365 21.2549C26.7424 22.857 25.5764 24.2028 24.082 24.7807C23.5635 24.9811 22.8447 25.1403 22.4577 25.1403H22.2193V27.6771V30.2138L22.783 30.1723C24.8465 30.0198 26.6341 29.3725 28.2063 28.2082C29.5845 27.1875 30.5868 25.9618 31.3272 24.3915C31.9814 23.0041 32.2116 22.0189 32.2557 20.4176C32.2836 19.4075 32.2705 19.1587 32.1532 18.4675C31.3861 13.9463 27.8231 10.6029 23.2248 10.0898C22.7077 10.0322 21.9031 10.0221 21.4271 10.0675ZM52.4446 24.9248V35.0122H54.1813H55.9181V26.6925V18.3726L61.7224 18.3907C67.0739 18.4074 67.555 18.4172 67.8902 18.517C69.2183 18.9124 70.117 19.8618 70.3921 21.1601C70.5054 21.6947 70.5047 22.6163 70.3905 23.1598C70.1811 24.1574 69.5215 25.0513 68.6681 25.4943C67.7421 25.975 68.0074 25.9524 62.9717 25.9775L58.4775 25.9999V27.7029V29.4059H62.715C65.251 29.4059 67.1902 29.3802 67.5443 29.3421C69.3207 29.1505 70.7103 28.5472 71.8151 27.488C72.6327 26.7043 73.1434 25.8818 73.5218 24.739C74.0535 23.134 74.0551 20.9619 73.5257 19.3411C72.7766 17.0471 71.1019 15.6153 68.4577 15.0078C67.8994 14.8795 67.7969 14.8776 60.1685 14.8576L52.4446 14.8374V24.9248ZM76.8893 17.4164C78.1006 18.8324 80.4931 21.6306 82.2061 23.6347L85.3208 27.2783L85.3513 31.13L85.3818 34.9818L87.1337 34.9979L88.8855 35.0141V31.1841V27.3541L94.2484 21.098L99.6113 14.8417H97.3643H95.1173L91.2852 19.3649C89.1777 21.8527 87.4101 23.9406 87.3581 24.0047C87.2665 24.1152 87.0594 23.8816 83.3453 19.4815L79.4278 14.8417H77.0574H74.6869L76.8893 17.4164ZM102.475 16.609V18.3762H107.106H111.737V26.6951V35.0141L113.489 34.9979L115.241 34.9818L115.257 26.6793L115.272 18.3769L119.888 18.3613L124.504 18.3457L124.52 16.5937L124.536 14.8417H113.506H102.475V16.609ZM127.901 24.9118L127.917 34.9818H129.653H131.39L131.406 30.64L131.421 26.2981H137.911H144.4V24.7137V23.1293H137.911H131.42V18.9856V14.8417H129.653H127.885L127.901 24.9118ZM146.487 24.9118L146.502 34.9818L148.254 34.9979L150.006 35.0141V24.9279V14.8417H148.239H146.472L146.487 24.9118Z" fill="white"></path></g></g><defs><clipPath id="clip0_433_25658"><rect width="150" height="50" fill="white"></rect></clipPath></defs></svg>