<svg xmlns="http://www.w3.org/2000/svg" width="150" height="50" viewBox="0 0 150 50" fill="none"><mask id="mask0_433_25667" style="mask-type:luminance" maskUnits="userSpaceOnUse" x="0" y="6" width="150" height="38"><path d="M150 6H0V43.634H150V6Z" fill="white"></path></mask><g mask="url(#mask0_433_25667)"><path d="M63.0882 24.8406C63.0882 25.5376 63.0167 26.2106 62.8723 26.8595C62.7279 27.5084 62.5114 28.0853 62.2473 28.662C61.9826 29.2149 61.6464 29.7436 61.2619 30.2003C60.8773 30.657 60.4206 31.0655 59.9159 31.426L63.9297 35.7763H61.502C61.1417 35.7763 60.8293 35.7282 60.5408 35.6321C60.2524 35.5359 60.012 35.3677 59.7717 35.1033L57.4644 32.5557C57.1039 32.6518 56.7194 32.7239 56.3108 32.796C55.9262 32.844 55.5176 32.8681 55.1091 32.8681C53.9073 32.8681 52.8258 32.6758 51.8403 32.2673C50.8549 31.8587 50.0137 31.3059 49.2927 30.5848C48.5957 29.8638 48.0429 29.0226 47.6583 28.0372C47.2738 27.0517 47.0815 25.9702 47.0815 24.8166C47.0815 23.6629 47.2738 22.6054 47.6583 21.62C48.0429 20.6346 48.5957 19.7693 49.2927 19.0723C49.9897 18.3513 50.8549 17.7985 51.8403 17.3899C52.8258 16.9813 53.9314 16.7891 55.1091 16.7891C56.3108 16.7891 57.3923 16.9813 58.3777 17.3899C59.3631 17.7985 60.2043 18.3513 60.9013 19.0723C61.5983 19.7934 62.1511 20.6346 62.5354 21.62C62.8963 22.6294 63.0882 23.6869 63.0882 24.8406ZM60.0602 24.8406C60.0602 23.9754 59.94 23.2063 59.6996 22.5333C59.4833 21.8363 59.1468 21.2595 58.7142 20.7788C58.2816 20.2981 57.7528 19.9375 57.152 19.6732C56.5511 19.4088 55.8541 19.2886 55.085 19.2886C54.3159 19.2886 53.6189 19.4088 52.994 19.6732C52.3691 19.9375 51.8403 20.2981 51.4077 20.7788C50.9751 21.2595 50.6386 21.8363 50.4223 22.5333C50.182 23.2063 50.0618 23.9994 50.0618 24.8406C50.0618 25.7059 50.182 26.475 50.4223 27.1719C50.6626 27.8449 50.9751 28.4457 51.4077 28.9024C51.8403 29.3831 52.3691 29.7436 52.994 29.984C53.6189 30.2483 54.3159 30.3685 55.085 30.3685C55.8541 30.3685 56.5511 30.2483 57.152 29.984C57.7769 29.7196 58.3056 29.3591 58.7142 28.9024C59.1468 28.4217 59.4833 27.8449 59.6996 27.1719C59.94 26.475 60.0602 25.7059 60.0602 24.8406Z" fill="white"></path><path d="M66.8553 21.552V28.6422C66.8553 29.3151 67.0238 29.8439 67.3359 30.2284C67.6481 30.5889 68.1293 30.7812 68.7778 30.7812C69.2349 30.7812 69.6915 30.6851 70.0999 30.4688C70.5083 30.2525 70.8933 29.964 71.2536 29.6035V21.528H73.9453V32.6799H72.287C71.9267 32.6799 71.7101 32.5117 71.5898 32.1993L71.3979 31.31C71.1573 31.5503 70.9173 31.7666 70.6767 31.9589C70.4361 32.1512 70.1721 32.3194 69.8833 32.4396C69.5952 32.5597 69.3065 32.6799 68.9702 32.752C68.6581 32.8242 68.2971 32.8722 67.9368 32.8722C67.3359 32.8722 66.7832 32.7761 66.3025 32.5597C65.846 32.3434 65.437 32.055 65.1248 31.6705C64.8126 31.2859 64.572 30.8533 64.4036 30.3246C64.2358 29.7958 64.1636 29.2189 64.1636 28.5941V21.5039H66.8553V21.552Z" fill="white"></path><path d="M78.803 21.5538V32.7058H76.1107V21.5538H78.803ZM79.2114 18.2852C79.2114 18.5255 79.1633 18.7418 79.0671 18.9341C78.9708 19.1264 78.8505 19.3186 78.6827 19.4629C78.5384 19.6071 78.3459 19.7272 78.1299 19.8234C77.9134 19.9195 77.6974 19.9435 77.4568 19.9435C77.2162 19.9435 77.0003 19.8955 76.7837 19.8234C76.5919 19.7272 76.3994 19.6071 76.255 19.4629C76.1107 19.3186 75.9669 19.1264 75.8947 18.9341C75.7985 18.7418 75.7744 18.5015 75.7744 18.2852C75.7744 18.0448 75.8225 17.8285 75.8947 17.6122C75.991 17.3959 76.1107 17.2277 76.255 17.0594C76.3994 16.9152 76.5919 16.795 76.7837 16.6989C77.0003 16.6027 77.2162 16.5547 77.4568 16.5547C77.6974 16.5547 77.9134 16.6027 78.1299 16.6989C78.3459 16.795 78.5143 16.9152 78.6827 17.0594C78.8505 17.2036 78.9708 17.3959 79.0671 17.6122C79.1633 17.8285 79.2114 18.0448 79.2114 18.2852Z" fill="white"></path><path d="M88.8753 23.9097C88.8037 24.0059 88.7075 24.102 88.6353 24.15C88.5631 24.1982 88.4428 24.2462 88.2984 24.2462C88.1547 24.2462 88.0344 24.1982 87.89 24.126C87.7697 24.0299 87.6019 23.9337 87.4094 23.8376C87.2169 23.7174 87.001 23.6454 86.7604 23.5492C86.5204 23.4531 86.2076 23.429 85.8232 23.429C85.3426 23.429 84.9336 23.5252 84.5733 23.6934C84.213 23.8617 83.9242 24.102 83.6842 24.4145C83.4436 24.7269 83.2752 25.1114 83.1555 25.5681C83.0352 26.0248 82.9871 26.5295 82.9871 27.1063C82.9871 27.7072 83.0593 28.2359 83.1796 28.6926C83.2993 29.1493 83.4918 29.5578 83.7324 29.8703C83.9724 30.1827 84.2611 30.4231 84.5973 30.5913C84.9336 30.7596 85.3186 30.8316 85.751 30.8316C86.1835 30.8316 86.5204 30.7836 86.7844 30.6874C87.0491 30.5673 87.2891 30.4711 87.4575 30.351C87.65 30.2308 87.7938 30.1106 87.9381 30.0145C88.0825 29.8943 88.2269 29.8462 88.3947 29.8462C88.6112 29.8462 88.7796 29.9183 88.8753 30.0866L89.6446 31.072C89.3565 31.4085 89.0196 31.7209 88.6834 31.9613C88.3225 32.2016 87.9622 32.3939 87.6019 32.5381C87.241 32.6823 86.8325 32.7784 86.4482 32.8265C86.0391 32.8746 85.6548 32.9227 85.2464 32.9227C84.5492 32.9227 83.9002 32.8025 83.2993 32.5381C82.6984 32.2737 82.1456 31.8891 81.689 31.4085C81.2325 30.9037 80.8722 30.3029 80.6075 29.6059C80.3435 28.8848 80.2231 28.0677 80.2231 27.1543C80.2231 26.3372 80.3434 25.5681 80.5834 24.8711C80.8241 24.1741 81.1844 23.5732 81.6409 23.0445C82.0981 22.5397 82.6749 22.1312 83.3474 21.8428C84.0205 21.5543 84.8139 21.4102 85.6788 21.4102C86.5204 21.4102 87.241 21.5543 87.8659 21.8187C88.4909 22.0831 89.0678 22.4677 89.5724 22.9724L88.8753 23.9097Z" fill="white"></path><path d="M93.2734 16.5592V25.8125H93.7787C93.9705 25.8125 94.0908 25.7884 94.2111 25.7404C94.3074 25.6923 94.4271 25.5961 94.5474 25.452L97.3354 22.015C97.4557 21.8708 97.6001 21.7506 97.7198 21.6786C97.8641 21.5824 98.0325 21.5584 98.2725 21.5584H100.748L97.2632 25.6923C97.1435 25.8365 97.0232 25.9807 96.8788 26.1249C96.7585 26.2451 96.6142 26.3653 96.4464 26.4614C96.5907 26.5816 96.7345 26.7018 96.8548 26.846C96.9751 26.9901 97.0954 27.1584 97.2151 27.3026L100.965 32.7104H98.5372C98.3207 32.7104 98.1528 32.6623 98.0085 32.5902C97.8641 32.5181 97.7197 32.3979 97.6241 32.2297L94.7639 27.9996C94.6436 27.8313 94.5474 27.7352 94.4271 27.6631C94.3074 27.615 94.163 27.591 93.9465 27.591H93.3456V32.7104H90.6538V16.5352H93.2734V16.5592Z" fill="white"></path><path d="M103.412 16.9883C103.533 16.9883 103.653 16.9883 103.749 17.0123C103.845 17.0123 103.917 17.0363 103.989 17.0844C104.061 17.1085 104.134 17.1565 104.206 17.2286C104.277 17.2767 104.35 17.3728 104.422 17.4689L112.714 27.9961C112.69 27.7317 112.665 27.4913 112.641 27.251C112.641 27.0107 112.641 26.7703 112.641 26.554V16.9883H115.238V32.7308H113.724C113.483 32.7308 113.29 32.6828 113.147 32.6107C113.002 32.5386 112.834 32.4184 112.69 32.2261L104.422 21.7471C104.446 21.9874 104.47 22.2037 104.47 22.4441C104.494 22.6604 104.494 22.8767 104.494 23.069V32.7308H101.898V16.9883H103.412Z" fill="white"></path><path d="M122.161 21.3828C123.002 21.3828 123.747 21.527 124.444 21.7914C125.117 22.0558 125.718 22.4403 126.199 22.9451C126.679 23.4498 127.04 24.0506 127.304 24.7477C127.569 25.4687 127.689 26.2618 127.689 27.1271C127.689 28.0163 127.569 28.8095 127.304 29.5305C127.04 30.2516 126.679 30.8524 126.199 31.3571C125.718 31.8619 125.141 32.2464 124.444 32.5108C123.772 32.7751 123.002 32.9194 122.161 32.9194C121.32 32.9194 120.55 32.7751 119.878 32.5108C119.205 32.2464 118.604 31.8619 118.123 31.3571C117.643 30.8524 117.258 30.2516 116.994 29.5305C116.729 28.8095 116.609 28.0163 116.609 27.1271C116.609 26.2378 116.729 25.4446 116.994 24.7477C117.258 24.0266 117.643 23.4257 118.123 22.9451C118.604 22.4403 119.205 22.0798 119.878 21.7914C120.55 21.503 121.32 21.3828 122.161 21.3828ZM122.161 30.8043C123.098 30.8043 123.772 30.4919 124.228 29.8669C124.685 29.2421 124.901 28.3288 124.901 27.1271C124.901 25.9253 124.685 25.012 124.228 24.3631C123.796 23.7382 123.098 23.4257 122.161 23.4257C121.224 23.4257 120.503 23.7382 120.07 24.3871C119.613 25.012 119.397 25.9253 119.397 27.1271C119.397 28.3288 119.613 29.2421 120.07 29.8669C120.503 30.4919 121.199 30.8043 122.161 30.8043Z" fill="white"></path><path d="M136.8 32.707C136.44 32.707 136.223 32.5388 136.103 32.2264L135.887 31.1448C135.646 31.4092 135.406 31.6495 135.166 31.8418C134.925 32.0341 134.637 32.2264 134.325 32.3946C134.036 32.5388 133.724 32.659 133.363 32.7311C133.027 32.8272 132.666 32.8513 132.282 32.8513C131.681 32.8513 131.104 32.7311 130.599 32.4667C130.094 32.2023 129.638 31.8418 129.278 31.3612C128.917 30.8804 128.629 30.2796 128.436 29.5586C128.244 28.8375 128.148 28.0444 128.148 27.1311C128.148 26.3139 128.268 25.5448 128.484 24.8238C128.701 24.1027 129.037 23.5019 129.445 22.9731C129.878 22.4444 130.383 22.0358 130.96 21.7473C131.56 21.459 132.209 21.2907 132.955 21.2907C133.58 21.2907 134.108 21.3868 134.565 21.6032C134.997 21.7955 135.406 22.0598 135.767 22.3963V16.5078H138.458V32.683H136.8V32.707ZM133.219 30.7363C133.772 30.7363 134.253 30.6161 134.661 30.3998C135.045 30.1594 135.43 29.847 135.767 29.4144V24.4152C135.454 24.0547 135.118 23.7903 134.757 23.6221C134.396 23.4778 134.012 23.3817 133.604 23.3817C133.195 23.3817 132.834 23.4538 132.498 23.6221C132.161 23.7662 131.897 24.0066 131.657 24.319C131.441 24.6315 131.248 25.0161 131.128 25.4967C131.008 25.9774 130.936 26.5302 130.936 27.1792C130.936 27.8281 130.984 28.3809 131.08 28.8375C131.2 29.2942 131.344 29.6547 131.537 29.9431C131.729 30.2315 131.969 30.4238 132.257 30.568C132.546 30.6882 132.858 30.7363 133.219 30.7363Z" fill="white"></path><path d="M145.138 21.3828C145.835 21.3828 146.484 21.503 147.085 21.7193C147.686 21.9356 148.19 22.2721 148.623 22.7047C149.056 23.1373 149.392 23.6661 149.633 24.291C149.873 24.9158 149.993 25.6369 149.993 26.43C149.993 26.6223 149.993 26.8146 149.969 26.9348C149.945 27.0549 149.921 27.1751 149.873 27.2472C149.825 27.3193 149.777 27.3674 149.68 27.4154C149.609 27.4395 149.488 27.4635 149.368 27.4635H142.446C142.518 28.6172 142.831 29.4584 143.384 29.9871C143.912 30.5159 144.634 30.7803 145.523 30.7803C145.955 30.7803 146.34 30.7322 146.652 30.6361C146.964 30.5399 147.253 30.4197 147.493 30.2996C147.734 30.1794 147.95 30.0592 148.118 29.9631C148.311 29.8669 148.479 29.8189 148.647 29.8189C148.767 29.8189 148.839 29.8429 148.936 29.891C149.008 29.9391 149.08 29.9871 149.152 30.0833L149.945 31.0687C149.657 31.4052 149.32 31.7176 148.936 31.958C148.575 32.1983 148.166 32.3906 147.758 32.5348C147.349 32.679 146.94 32.7751 146.532 32.8232C146.124 32.8712 145.715 32.9194 145.33 32.9194C144.561 32.9194 143.816 32.7992 143.167 32.5348C142.494 32.2704 141.917 31.8859 141.412 31.3811C140.908 30.8764 140.523 30.2516 140.235 29.5065C139.947 28.7614 139.802 27.8962 139.802 26.9108C139.802 26.1416 139.923 25.4446 140.163 24.7717C140.403 24.0987 140.764 23.5219 141.221 23.0172C141.677 22.5125 142.254 22.1279 142.903 21.8395C143.552 21.527 144.297 21.3828 145.138 21.3828ZM145.186 23.3055C144.393 23.3055 143.792 23.5219 143.336 23.9785C142.903 24.4112 142.614 25.0601 142.494 25.8532H147.565C147.565 25.5168 147.517 25.1803 147.422 24.8678C147.325 24.5554 147.181 24.291 146.988 24.0506C146.797 23.8103 146.556 23.642 146.244 23.4978C145.955 23.3777 145.595 23.3055 145.186 23.3055Z" fill="white"></path><mask id="mask1_433_25667" style="mask-type:luminance" maskUnits="userSpaceOnUse" x="-1" y="6" width="39" height="38"><path d="M37.6527 6.01562H-0.00927734V43.6776H37.6527V6.01562Z" fill="white"></path></mask><g mask="url(#mask1_433_25667)"><path fill-rule="evenodd" clip-rule="evenodd" d="M18.8097 36.6304C22.0063 36.6304 24.9145 35.3566 27.0295 33.2896C27.0776 33.2416 27.1737 33.2416 27.2458 33.2896L32.1248 38.1686L37.1961 43.2399C37.3162 43.3601 37.1961 43.5283 37.0519 43.4802L28.9522 40.7884C28.9042 40.7644 28.8561 40.7884 28.832 40.8124C25.9239 42.639 22.487 43.6965 18.8097 43.6965C8.40275 43.6965 -0.00927734 35.2605 -0.00927734 24.8776C-0.00927734 14.4706 8.42682 6.05859 18.8097 6.05859C29.1926 6.05859 37.6287 14.4947 37.6287 24.8776C37.6287 29.3239 36.0905 33.4098 33.5188 36.6304C33.4707 36.7025 33.3746 36.7025 33.3025 36.6304L23.3522 26.6802C23.232 26.56 23.3522 26.3917 23.4964 26.4398L29.8175 28.5548C29.8896 28.5789 29.9857 28.5308 30.0097 28.4587C30.3703 27.3291 30.5625 26.1274 30.5625 24.8776C30.5625 18.3883 25.299 13.1007 18.7857 13.1007C12.2723 13.1007 7.00875 18.3642 7.00875 24.8776C7.03281 31.3428 12.3204 36.6304 18.8097 36.6304Z" fill="#00A4D6"></path></g></g></svg>