<svg xmlns="http://www.w3.org/2000/svg" width="150" height="50" viewBox="0 0 150 50" fill="none"><mask id="mask0_433_25691" style="mask-type:luminance" maskUnits="userSpaceOnUse" x="0" y="5" width="150" height="41"><path d="M149.305 5H0V45.896H149.305V5Z" fill="white"></path></mask><g mask="url(#mask0_433_25691)"><path fill-rule="evenodd" clip-rule="evenodd" d="M51.3013 30.2387L49.4609 27.0437H46.7707V30.2387H45.186V20.6408H49.9594C50.5409 20.6344 51.116 20.7942 51.6144 21.0945C52.1129 21.3948 52.5218 21.823 52.7966 22.3406C53.0714 22.8582 53.1928 23.4396 53.1608 24.0212C53.1289 24.6027 52.9372 25.1714 52.6049 25.6506C52.2598 26.1618 51.7742 26.5581 51.2055 26.7945L53.1608 30.2387H51.3013ZM49.953 22.2703H46.7707V25.459H49.9594C50.1703 25.459 50.3747 25.4142 50.5665 25.3311C50.7582 25.248 50.9307 25.1266 51.0712 24.9733C51.2885 24.7497 51.4419 24.4685 51.4994 24.1554C51.5569 23.8487 51.525 23.5291 51.4099 23.2352C51.2885 22.9476 51.0904 22.6984 50.8285 22.5195C50.5665 22.3406 50.2661 22.2447 49.953 22.2447V22.2703ZM66.9254 20.6408L62.1389 30.2387H63.9153L66.9187 24.2256L69.9155 30.2387H71.6922L66.9254 20.6408ZM87.0664 20.6408H85.041L82.3191 24.1809L79.6092 20.6408H77.5772L81.5649 25.7592V30.2387H83.1497V25.6826L87.0664 20.6408ZM95.1886 20.6408H98.3644C99.6295 20.6472 100.838 21.1584 101.725 22.0594C102.62 22.954 103.125 24.1746 103.131 25.4398C103.125 26.7114 102.62 27.9255 101.725 28.8265C100.831 29.7275 99.6235 30.2323 98.3577 30.2387H95.1819V20.6408H95.1886ZM98.3644 28.6092C99.2078 28.6092 100.013 28.2706 100.607 27.6699C101.202 27.0693 101.54 26.2577 101.54 25.4142C101.527 24.5707 101.195 23.7592 100.601 23.1649C100.006 22.5706 99.2018 22.2256 98.3644 22.2192H96.7608V28.6092H98.3644ZM113.733 20.6408H112.148V30.2387H113.733V20.6408ZM130.692 26.2322C130.698 26.7625 130.603 27.2865 130.398 27.7721C130.2 28.2578 129.899 28.6987 129.516 29.063C128.96 29.6253 128.251 30.0023 127.478 30.1556C126.705 30.309 125.906 30.2323 125.177 29.9256C124.449 29.6253 123.829 29.1077 123.394 28.4495C122.96 27.7913 122.73 27.0181 122.73 26.2257V20.6408H124.315V26.2257C124.315 26.8648 124.564 27.4718 125.017 27.9191C125.464 28.3664 126.072 28.622 126.705 28.622C127.337 28.622 127.944 28.3664 128.391 27.9191C128.839 27.4718 129.088 26.8583 129.088 26.2257V20.6408H130.686V26.2322H130.692ZM141.28 30.2387V24.5005L144.475 27.7019L147.658 24.5005V30.2387H149.268V20.6408L144.475 25.4398L139.702 20.6408V30.2387H141.28Z" fill="white"></path><path d="M33.4089 20.3398V34.6089L17.619 43.7723L1.82269 34.6089V16.282L17.6254 7.10588L29.7602 14.1542L31.5941 13.0934L17.6254 4.98438L-0.00488281 15.2149V35.6696L17.6254 45.9001L35.2557 35.6696V19.279L33.4089 20.3398Z" fill="url(#paint0_linear_433_25691)"></path><path d="M13.2041 34.6255H10.5649V25.7178H19.3705C20.2012 25.7113 21 25.3727 21.5879 24.772C22.1757 24.1777 22.5016 23.3726 22.5081 22.5354C22.5144 22.1201 22.4314 21.7112 22.2716 21.3277C22.1118 20.9443 21.8754 20.5993 21.5815 20.3117C21.2939 20.0178 20.9488 19.7813 20.5719 19.6216C20.1948 19.4618 19.7859 19.3787 19.3705 19.3852H10.5649V16.6758H19.3769C20.9169 16.6822 22.3994 17.3084 23.4857 18.4011C24.5784 19.5002 25.1919 20.9827 25.2046 22.5354C25.2111 23.724 24.8532 24.8807 24.1759 25.8519C23.5496 26.7785 22.6678 27.507 21.639 27.9415C20.6166 28.2674 19.5558 28.4272 18.4886 28.4207H13.2041V34.6255Z" fill="url(#paint1_linear_433_25691)"></path><path d="M25.1407 34.3952H22.0607L19.6836 30.2289C20.6229 30.1714 21.5495 29.9797 22.4377 29.6602L25.1407 34.3952Z" fill="url(#paint2_linear_433_25691)"></path><path d="M31.5732 17.3743L33.3944 18.3903L35.2155 17.3743V15.2209L33.3944 14.1602L31.5732 15.2209V17.3743Z" fill="url(#paint3_linear_433_25691)"></path></g><defs><linearGradient id="paint0_linear_433_25691" x1="36.3247" y1="18.0064" x2="-1.11072" y2="32.8971" gradientUnits="userSpaceOnUse"><stop stop-color="#C200FB"></stop><stop offset="0.4897" stop-color="#3772FF"></stop><stop offset="0.4898" stop-color="#3773FE"></stop><stop offset="1" stop-color="#5AC4BE"></stop></linearGradient><linearGradient id="paint1_linear_433_25691" x1="35.6109" y1="16.2145" x2="-1.82439" y2="31.1052" gradientUnits="userSpaceOnUse"><stop stop-color="#C200FB"></stop><stop offset="0.4897" stop-color="#3772FF"></stop><stop offset="0.4898" stop-color="#3773FE"></stop><stop offset="1" stop-color="#5AC4BE"></stop></linearGradient><linearGradient id="paint2_linear_433_25691" x1="39.3386" y1="25.5797" x2="1.90329" y2="40.4703" gradientUnits="userSpaceOnUse"><stop stop-color="#C200FB"></stop><stop offset="0.4897" stop-color="#3772FF"></stop><stop offset="0.4898" stop-color="#3773FE"></stop><stop offset="1" stop-color="#5AC4BE"></stop></linearGradient><linearGradient id="paint3_linear_433_25691" x1="35.333" y1="15.5087" x2="-2.1022" y2="30.3994" gradientUnits="userSpaceOnUse"><stop stop-color="#C200FB"></stop><stop offset="0.4897" stop-color="#3772FF"></stop><stop offset="0.4898" stop-color="#3773FE"></stop><stop offset="1" stop-color="#5AC4BE"></stop></linearGradient></defs></svg>