<svg xmlns="http://www.w3.org/2000/svg" width="150" height="50" viewBox="0 0 150 50" fill="none"><mask id="mask0_433_25719" style="mask-type:luminance" maskUnits="userSpaceOnUse" x="1" y="14" width="149" height="23"><path d="M149.953 14H1V36.198H149.953V14Z" fill="white"></path></mask><g mask="url(#mask0_433_25719)"><path d="M25.6903 31.5017L21.5929 35.8951C21.5043 35.9905 21.397 36.0666 21.2776 36.1188C21.1582 36.1709 21.0294 36.1979 20.8992 36.198H1.47606C1.38342 36.1979 1.29281 36.1709 1.21532 36.1201C1.13783 36.0693 1.07682 35.9971 1.03976 35.9122C1.00271 35.8273 0.991218 35.7334 1.0067 35.6421C1.02217 35.5507 1.06395 35.4659 1.12691 35.3979L5.21963 31.0046C5.30827 30.9092 5.41559 30.833 5.53495 30.7809C5.65427 30.7288 5.78309 30.7018 5.91333 30.7017H25.3365C25.4299 30.6998 25.5219 30.7255 25.6008 30.7757C25.6796 30.826 25.7421 30.8984 25.7798 30.9839C25.8177 31.0694 25.8292 31.1642 25.8133 31.2564C25.7973 31.3485 25.7545 31.4339 25.6903 31.5017ZM21.5929 22.6526C21.5039 22.5576 21.3965 22.4818 21.2773 22.4297C21.158 22.3776 21.0293 22.3504 20.8992 22.3497H1.47606C1.38342 22.3498 1.29281 22.3769 1.21532 22.4276C1.13783 22.4784 1.07682 22.5507 1.03976 22.6356C1.00271 22.7205 0.991218 22.8143 1.0067 22.9056C1.02217 22.997 1.06395 23.0818 1.12691 23.1498L5.21963 27.5455C5.3086 27.6404 5.41599 27.7163 5.53527 27.7684C5.65452 27.8205 5.7832 27.8477 5.91333 27.8483H25.3365C25.429 27.8479 25.5192 27.8205 25.5964 27.7695C25.6736 27.7186 25.7342 27.6463 25.7709 27.5615C25.8077 27.4767 25.8191 27.383 25.8033 27.2919C25.7878 27.2007 25.7462 27.1161 25.6833 27.0483L21.5929 22.6526ZM1.47606 19.4964H20.8992C21.0294 19.4963 21.1582 19.4693 21.2776 19.4171C21.397 19.3651 21.5043 19.2889 21.5929 19.1935L25.6903 14.8001C25.7545 14.7323 25.7973 14.6469 25.8133 14.5548C25.8292 14.4626 25.8177 14.3678 25.7798 14.2823C25.7421 14.1968 25.6796 14.1244 25.6008 14.0742C25.5219 14.0239 25.4299 13.9982 25.3365 14.0001H5.91333C5.78309 14.0002 5.65427 14.0272 5.53495 14.0793C5.41559 14.1314 5.30827 14.2076 5.21963 14.303L1.12691 18.6963C1.06395 18.7643 1.02217 18.8492 1.0067 18.9405C0.991218 19.0318 1.00271 19.1257 1.03976 19.2106C1.07682 19.2955 1.13783 19.3678 1.21532 19.4185C1.29281 19.4693 1.38342 19.4963 1.47606 19.4964Z" fill="url(#paint0_linear_433_25719)"></path><path fill-rule="evenodd" clip-rule="evenodd" d="M106.035 16.5432H95.8615C95.4128 16.5408 94.9685 16.6267 94.5533 16.7961C94.1381 16.9655 93.76 17.215 93.4412 17.5304C93.1224 17.8458 92.8688 18.221 92.6948 18.6344C92.5209 19.0479 92.4299 19.4915 92.4277 19.94V33.6541H95.8961V28.0329H106.024V33.6541H109.493V19.94C109.49 19.4895 109.399 19.044 109.223 18.629C109.048 18.2141 108.792 17.8379 108.471 17.5222C108.15 17.2065 107.769 16.9574 107.351 16.7894C106.933 16.6214 106.486 16.5377 106.035 16.5432ZM106.01 24.6108H95.8822V19.9654H106.01V24.6108Z" fill="white"></path><path fill-rule="evenodd" clip-rule="evenodd" d="M59.0708 16.5431H69.5017C69.95 16.5407 70.3947 16.6266 70.8099 16.7959C71.2251 16.9653 71.6032 17.2149 71.922 17.5303C72.2407 17.8457 72.4944 18.2208 72.6683 18.6343C72.8423 19.0477 72.9329 19.4913 72.9354 19.9398V30.2572C72.9329 30.7057 72.8423 31.1493 72.6683 31.5628C72.4944 31.9762 72.2407 32.3513 71.922 32.6667C71.6032 32.9822 71.2251 33.2317 70.8099 33.4011C70.3947 33.5705 69.95 33.6564 69.5017 33.6539H59.0708C58.6217 33.6576 58.176 33.5726 57.7597 33.4038C57.3434 33.2349 56.9645 32.9856 56.6447 32.67C56.3244 32.3545 56.0701 31.979 55.8958 31.5649C55.7214 31.1509 55.6301 30.7065 55.6279 30.2572V19.9398C55.6301 19.4905 55.7214 19.0461 55.8958 18.6321C56.0701 18.2181 56.3244 17.8425 56.6447 17.527C56.9645 17.2114 57.3434 16.9621 57.7597 16.7933C58.176 16.6244 58.6217 16.5394 59.0708 16.5431ZM59.0963 30.2318H69.4762L69.4715 19.9652H59.0963V30.2318Z" fill="white"></path><path d="M38.9794 23.3874H49.371C49.8197 23.3849 50.2647 23.471 50.6803 23.6407C51.0959 23.8104 51.474 24.0603 51.7927 24.3762C52.1119 24.6921 52.3651 25.0678 52.5387 25.4818C52.7127 25.8957 52.8026 26.3399 52.8044 26.7887V30.2571C52.8022 30.7056 52.7112 31.1493 52.5376 31.5627C52.3637 31.9761 52.11 32.3513 51.7909 32.6667C51.4725 32.9821 51.0944 33.2316 50.6792 33.401C50.264 33.5704 49.8193 33.6563 49.371 33.6539H35.7584V30.2317H49.3499V26.8095H38.9448C38.4958 26.812 38.0507 26.7259 37.6352 26.5562C37.2199 26.3865 36.8417 26.1366 36.5226 25.8207C36.2037 25.5048 35.9503 25.1291 35.7767 24.7151C35.603 24.3012 35.5128 23.8571 35.511 23.4082V19.9398C35.5133 19.4913 35.6042 19.0476 35.7781 18.6342C35.9519 18.2208 36.2056 17.8456 36.5245 17.5302C36.8431 17.2148 37.221 16.9653 37.6366 16.7959C38.0518 16.6265 38.4961 16.5406 38.9448 16.543H52.0715V19.9652H38.9794V23.3874Z" fill="white"></path><path fill-rule="evenodd" clip-rule="evenodd" d="M136.361 16.543H146.535C146.983 16.5406 147.428 16.6265 147.843 16.7959C148.259 16.9653 148.636 17.2148 148.955 17.5302C149.274 17.8456 149.528 18.2208 149.701 18.6342C149.875 19.0476 149.966 19.4913 149.968 19.9398V33.6539H146.5V28.0327H136.396V33.6539H132.927V19.9398C132.93 19.4913 133.02 19.0476 133.194 18.6342C133.368 18.2208 133.622 17.8456 133.94 17.5302C134.26 17.2148 134.637 16.9653 135.053 16.7959C135.468 16.6265 135.912 16.5406 136.361 16.543ZM136.372 24.6106H146.5V19.9652H136.372V24.6106Z" fill="white"></path><path d="M126.384 30.2317H124.996L120.036 17.9766C119.866 17.5538 119.574 17.1915 119.197 16.936C118.819 16.6806 118.374 16.5437 117.918 16.543H114.841C114.541 16.5415 114.245 16.5989 113.968 16.7119C113.691 16.825 113.439 16.9915 113.227 17.2019C113.014 17.4123 112.845 17.6626 112.729 17.9383C112.613 18.214 112.553 18.5099 112.552 18.809V33.6539H116.02V19.9652H117.407L122.365 32.2202C122.538 32.6423 122.832 33.0031 123.211 33.2568C123.59 33.5106 124.036 33.6455 124.492 33.6446H127.57C127.869 33.6461 128.165 33.5888 128.442 33.4757C128.719 33.3626 128.971 33.1961 129.184 32.9857C129.396 32.7753 129.565 32.525 129.681 32.2493C129.797 31.9735 129.857 31.6777 129.859 31.3786V16.543H126.384V30.2317Z" fill="white"></path><path d="M75.999 16.543H79.4674V30.2317H89.8498V33.6538H79.4444C78.995 33.6578 78.5492 33.573 78.1326 33.4043C77.7159 33.2356 77.3364 32.9863 77.0165 32.6708C76.6966 32.3552 76.4419 31.9796 76.2672 31.5653C76.0929 31.1512 76.0016 30.7066 75.999 30.2571V16.543Z" fill="white"></path></g><defs><linearGradient id="paint0_linear_433_25719" x1="3.09512" y1="36.727" x2="23.4633" y2="13.7657" gradientUnits="userSpaceOnUse"><stop offset="0.08" stop-color="#9945FF"></stop><stop offset="0.3" stop-color="#8752F3"></stop><stop offset="0.5" stop-color="#5497D5"></stop><stop offset="0.6" stop-color="#43B4CA"></stop><stop offset="0.72" stop-color="#28E0B9"></stop><stop offset="0.97" stop-color="#19FB9B"></stop></linearGradient></defs></svg>